# xmcd
#
# Track frame offsets:
#	150
#	14710
#	25588
#	36013
#	46813
#	58880
#	71563
#	83038
#	91588
#	103363
#	114460
#	123838
#	135763
#	147013
#	156758
#	165838
#	181285
#	202288
#	216388
#	229510
#	240755
#	247133
#	258833
#	271885
#	283588
#	297380
#
# Disc length: 4114
#
# Revision: 3
# Processed by: cddbd v1.5.1PL0 Copyright (c) Steve Scherf et al.
# Submitted via: audiograbber 1.80
# Normalized: r2:DSETVAR1
#
DISCID=6710101a
DTITLE=Various Artist - Christmas Country Style - Disc 1
DYEAR=1900
DGENRE=
TTITLE0=Gene Autry - Rudolph, The Red-Nosed Reindeer
TTITLE1=Charlie Rich - White Christmas
TTITLE2=Tanya Tucker - Silver Bells
TTITLE3=George Morgan - Blue Snow Fall
TTITLE4=Merle Haggard - If We Make It Through December
TTITLE5=Chet Atkins - East Tennessee Christmas
TTITLE6=Lynn Anderson - I Saw Mommy Kissing Santa Claus
TTITLE7=George Jones - Joy To The World
TTITLE8=Connie Smith - While Shepherds Watched Their Flocks
TTITLE9=Willie Nelson - Winter Wonderland
TTITLE10=Lynn Anderson - Rockin' Around The Christmas Tree
TTITLE11=Stonewall Jackson - Blue Christmas
TTITLE12=Slim Whitman - I'll Be Home For Christmas
TTITLE13=Mickey Gilley - Jingle Bell Rock
TTITLE14=George Jones and Tammy Wynette - Mr. and Mrs. Santa Claus
TTITLE15=John Schneider - Katey's Christmas Card
TTITLE16=Johnny Cash - The Christmas Guest
TTITLE17=Marty Robbins - Hark The Herald Angels Sing
TTITLE18=Larry Gatlin and Gatlin Brothers - Steps
TTITLE19=Connie Smith - The First Noel
TTITLE20=Chet Atkins - God Rest Ye Merry Gentlemen
TTITLE21=Johnny Cash - The Little Drummer Boy
TTITLE22=Tammy Wynette - Lonely Christmas Call
TTITLE23=Merle Haggard - Santa Claus And Popcorn
TTITLE24=Mickey Gilley - I'm Spending Christmas With You
TTITLE25=Ray Price - The Lord's Prayer
EXTD=
EXTT0=Gene Autry\n
EXTT1=Charlie Rich\n
EXTT2=Tanya Tucker\n
EXTT3=George Morgan\n
EXTT4=Merle Haggard\n
EXTT5=Chet Atkins\n
EXTT6=Lynn Anderson\n
EXTT7=George Jones\n
EXTT8=Connie Smith\n
EXTT9=Willie Nelson\n
EXTT10=Lynn Anderson\n
EXTT11=Stonewall Jackson\n
EXTT12=Slim Whitman\n
EXTT13=Mickey Gilley\n
EXTT14=George Jones and Tammy Wynette\n
EXTT15=John Schneider\n
EXTT16=Johnny Cash\n
EXTT17=Marty Robbins\n
EXTT18=Larry Gatlin and The Gatlin Brothers Band\n
EXTT19=Connie Smith\n
EXTT20=Chet Atkins\n
EXTT21=Johnny Cash\n
EXTT22=Tammy Wynette\n
EXTT23=Merle Haggard\n
EXTT24=Mickey Gilley\n
EXTT25=Ray Price\n
PLAYORDER=
